<?xml version="1.0" encoding="UTF-8" standalone="no"?>
<svg width="399px" height="399px" viewBox="0 0 399 399" version="1.1" xmlns="http://www.w3.org/2000/svg" xmlns:xlink="http://www.w3.org/1999/xlink">
    <!-- Generator: Sketch 49.2 (51160) - http://www.bohemiancoding.com/sketch -->
    <title>Group</title>
    <desc>Created with Sketch.</desc>
    <defs>
        <polygon id="path-1" points="0.458454624 0.436 130.049378 0.436 130.049378 303.9644 0.458454624 303.9644"></polygon>
        <polygon id="path-3" points="0 0.274398877 218.966496 0.274398877 218.966496 311 0 311"></polygon>
    </defs>
    <g id="Page-1" stroke="none" stroke-width="1" fill="none" fill-rule="evenodd">
        <g id="Group">
            <circle id="Oval" fill="#000000" cx="199.5" cy="199.5" r="199.5"></circle>
            <g id="Page-1" transform="translate(61.000000, 29.000000)">
                <g id="Group-3" transform="translate(127.000000, 0.564000)">
                    <mask id="mask-2" fill="white">
                        <use xlink:href="#path-1"></use>
                    </mask>
                    <g id="Clip-2"></g>
                    <path d="M89.3096,303.9644 L119.7056,290.8774 C126.9186,288.4044 131.2116,281.0094 129.7726,273.5214 C121.0116,227.9404 87.8126,56.2574 79.0166,10.2024 C77.6886,3.2484 70.6706,-1.0526 63.8686,0.9124 L12.9966,18.8334 C5.0736,21.1224 -0.1454,28.6724 0.5146,36.8944 L4.1766,48.9614 L63.6176,217.4574 L89.3096,303.9644 Z" id="Fill-1" fill="#FEFEFE" mask="url(#mask-2)"></path>
                </g>
                <g id="Group-6" transform="translate(0.000000, 30.564000)">
                    <mask id="mask-4" fill="white">
                        <use xlink:href="#path-3"></use>
                    </mask>
                    <g id="Clip-5"></g>
                    <path d="M211.9922,233.4233 L150.2772,24.6393 C149.8742,23.2773 149.3442,21.9443 148.6322,20.7153 C146.0672,16.2863 143.1242,12.6023 139.7432,9.6313 C132.9882,3.6943 124.5832,0.5523 114.7632,0.2923 C109.7292,0.1603 104.7952,0.7833 101.0552,1.3393 C84.7232,3.7773 49.9852,13.2383 23.3642,33.2353 C-8.0668,56.8593 0.2362,86.0443 3.3622,97.0333 C9.2282,117.6973 99.9682,279.4823 108.7572,291.3733 C118.1242,304.0403 129.5492,310.6393 142.7022,310.9863 C150.0382,311.1793 156.1022,309.3663 160.5262,308.0403 C161.3852,307.7823 162.2072,307.5363 162.9852,307.3323 C173.9212,304.4933 189.3972,298.1203 199.7902,292.1713 C205.9732,288.6343 210.6382,284.7903 214.1282,280.8513 C217.5642,276.9713 219.2802,271.8723 218.9192,266.7013 C217.8052,250.7953 213.0582,236.5603 212.2452,234.2163 C212.1532,233.9513 212.0712,233.6923 211.9922,233.4233" id="Fill-4" fill="#FEFEFE" mask="url(#mask-4)"></path>
                </g>
                <path d="M192.5605,206.1651 C194.7965,214.8171 195.4985,217.8331 197.3355,224.6031 C198.6445,229.4221 199.9145,230.4221 205.0865,228.7271 C209.8005,227.1831 217.5815,224.4491 222.8455,222.2221 C226.8915,220.5111 227.1435,219.0481 226.1505,213.1441 C225.0595,206.6671 223.9965,202.3961 222.4675,195.6191 C221.1285,189.6901 216.8925,190.4361 212.1575,192.3961 C210.0185,193.2871 204.4245,195.2971 199.9465,197.2231 C195.4705,199.1361 191.0195,200.1991 192.5605,206.1651" id="Fill-7" fill="#000000"></path>
                <path d="M189.8926,43.5743 C188.2796,36.1423 186.5936,32.8263 177.3056,36.1073 C170.5986,38.4763 168.6876,38.8933 159.9856,42.5403 C150.9746,46.3143 149.7266,47.2213 152.6196,56.8183 C159.5716,79.8853 182.8706,163.6083 188.3436,183.1813 C189.9036,188.7543 191.9116,190.3803 196.4226,188.7013 C202.2846,186.5213 206.2896,184.8003 211.2176,182.9063 C217.7346,180.4013 217.4266,178.0793 216.0366,170.8043 C214.1786,161.0973 193.9686,62.3393 189.8926,43.5743" id="Fill-9" fill="#000000"></path>
                <path d="M128.4053,257.7715 C118.9093,260.1915 104.6823,267.4265 90.1073,247.5635 C73.6113,225.0715 31.7273,143.6335 26.9233,126.4685 C23.6783,114.8995 19.9403,98.4225 40.1373,83.3605 C62.6763,66.5605 93.2593,57.6875 109.2193,55.3655 C124.4783,53.1465 134.8133,54.0465 141.7333,75.9465 C148.6553,97.8515 147.4913,96.1055 149.1563,105.1465 C150.8223,114.2005 145.0523,116.1115 137.1573,119.8345 C129.6963,123.3455 126.1303,124.9185 119.1653,126.9225 C113.0263,128.6845 110.4543,129.4605 107.7263,122.1755 C106.3473,118.5015 105.0883,113.3795 102.5583,108.5545 C100.9043,105.4005 98.7733,103.9985 93.8313,105.0455 C89.6363,105.9305 82.1613,109.4015 77.6573,113.0325 C74.8373,115.3145 69.5263,119.7825 75.2343,133.8955 C82.2703,151.2935 113.5513,212.8635 118.5933,222.5975 C120.8823,227.0285 122.3293,229.9965 128.2063,228.9285 C131.0463,228.4175 134.6763,226.8115 136.6393,225.2655 C138.9963,223.4005 139.1143,220.5125 137.5753,214.0155 C135.5753,205.5955 129.9443,189.2955 128.2833,183.6555 C126.9133,178.9725 122.6183,180.6955 119.4883,181.9715 C116.3603,183.2525 112.5553,187.1975 108.6023,179.4895 C104.6423,171.7855 102.7923,167.2615 100.5993,162.8865 C98.4153,158.5095 96.2933,152.2395 105.3003,147.5885 C115.1853,142.4905 135.1163,133.6985 144.5753,131.5565 C153.0013,129.6475 156.6223,131.9145 160.7913,146.4225 C164.9603,160.9305 176.6143,203.3875 179.3003,216.4315 C181.3543,226.4145 177.5693,235.4635 163.5143,243.4365 C153.4893,249.1255 138.4263,255.2095 128.4053,257.7715" id="Fill-11" fill="#000000"></path>
            </g>
        </g>
    </g>
</svg>