<?xml version="1.0" encoding="UTF-8" standalone="no"?>
<svg width="200px" height="200px" viewBox="0 0 200 200" version="1.1" xmlns="http://www.w3.org/2000/svg" xmlns:xlink="http://www.w3.org/1999/xlink">
    <!-- Generator: Sketch 49.2 (51160) - http://www.bohemiancoding.com/sketch -->
    <title>facebook</title>
    <desc>Created with Sketch.</desc>
    <defs></defs>
    <g id="Page-1" stroke="none" stroke-width="1" fill="none" fill-rule="evenodd">
        <g id="facebook">
            <circle id="Oval-2-Copy-2" fill="#000000" cx="100" cy="100" r="100"></circle>
            <path d="M124.297436,51.4320513 L111.511538,51.4128205 C97.1487179,51.4128205 87.8641026,60.9371795 87.8641026,75.675641 L87.8641026,86.8641026 L75.0076923,86.8641026 C73.9012821,86.8641026 73,87.7602564 73,88.8717949 L73,105.083333 C73,106.189744 73.9012821,107.091026 75.0076923,107.091026 L87.8641026,107.091026 L87.8641026,147.992308 C87.8641026,149.098718 88.7653846,150 89.8769231,150 L106.64359,150 C107.755128,150 108.65641,149.098718 108.65641,147.992308 L108.65641,107.091026 L123.685897,107.091026 C124.797436,107.091026 125.694872,106.189744 125.694872,105.083333 L125.703846,88.8717949 C125.703846,88.3410256 125.488462,87.8307692 125.112821,87.45 C124.737179,87.074359 124.226923,86.8641026 123.691026,86.8641026 L108.65641,86.8641026 L108.65641,77.3794872 C108.65641,72.8217949 109.74359,70.5076923 115.678205,70.5076923 L124.292308,70.5025641 C125.403846,70.5025641 126.3,69.6012821 126.3,68.4948718 L126.3,53.4461538 C126.3,52.3333333 125.403846,51.4371795 124.297436,51.4320513 Z" id="facebook-logo" fill="#FFFFFF"></path>
        </g>
    </g>
</svg>