<?xml version="1.0" encoding="UTF-8" standalone="no"?>
<svg width="200px" height="200px" viewBox="0 0 200 200" version="1.1" xmlns="http://www.w3.org/2000/svg" xmlns:xlink="http://www.w3.org/1999/xlink">
    <!-- Generator: Sketch 49.2 (51160) - http://www.bohemiancoding.com/sketch -->
    <title>instagram</title>
    <desc>Created with Sketch.</desc>
    <defs></defs>
    <g id="Page-1" stroke="none" stroke-width="1" fill="none" fill-rule="evenodd">
        <g id="instagram">
            <circle id="Oval-2" fill="#000000" cx="100" cy="100" r="100"></circle>
            <path d="M122.226837,45.0088319 L77.7731629,45.0088319 C59.7068347,45.0088319 45.0088319,59.7068347 45.0088319,77.7731629 L45.0088319,122.226837 C45.0088319,140.293165 59.7068347,154.991168 77.7731629,154.991168 L122.226837,154.991168 C140.293165,154.991168 154.991168,140.293165 154.991168,122.226837 L154.991168,77.7731629 C154.990968,59.7068347 140.292966,45.0088319 122.226837,45.0088319 Z M143.926949,122.226837 C143.926949,134.211378 134.211378,143.926949 122.226837,143.926949 L77.7731629,143.926949 C65.7886223,143.926949 56.0730509,134.211378 56.0730509,122.226837 L56.0730509,77.7731629 C56.0730509,65.7884227 65.7886223,56.0730509 77.7731629,56.0730509 L122.226837,56.0730509 C134.211378,56.0730509 143.926949,65.7884227 143.926949,77.7731629 L143.926949,122.226837 Z" id="Shape" fill="#FFFFFF" fill-rule="nonzero"></path>
            <path d="M100,71.5452677 C84.3100354,71.5452677 71.5452677,84.3100802 71.5452677,99.9999002 C71.5452677,115.68972 84.3100354,128.454732 100,128.454732 C115.689965,128.454732 128.454732,115.68992 128.454732,99.9999002 C128.454732,84.3098805 115.689965,71.5452677 100,71.5452677 Z M100,117.387023 C90.3974238,117.387023 82.6131377,109.60271 82.6131377,100.0001 C82.6131377,90.39749 90.3976235,82.6131765 100,82.6131765 C109.602576,82.6131765 117.386862,90.39749 117.386862,100.0001 C117.386862,109.60251 109.602377,117.387023 100,117.387023 Z" id="Shape" fill="#FFFFFF" fill-rule="nonzero"></path>
            <circle id="Oval" fill="#FFFFFF" fill-rule="nonzero" cx="128.61459" cy="71.7051257" r="6.87389601"></circle>
        </g>
    </g>
</svg>