<?xml version="1.0" encoding="utf-8"?>
<!-- Generator: Adobe Illustrator 16.0.3, SVG Export Plug-In . SVG Version: 6.00 Build 0)  -->
<!DOCTYPE svg PUBLIC "-//W3C//DTD SVG 1.1//EN" "http://www.w3.org/Graphics/SVG/1.1/DTD/svg11.dtd">
<svg version="1.1" id="Layer_1" xmlns="http://www.w3.org/2000/svg" xmlns:xlink="http://www.w3.org/1999/xlink" x="0px" y="0px"
	 width="450.25px" height="159.48px" viewBox="0 0 450.25 159.48" enable-background="new 0 0 450.25 159.48" xml:space="preserve">
<g>
	<path fill="#000000" d="M380.867,51.116c-0.25-2.66-3.121-3.259-4.039-1.442c-1.859,3.676-4.193,9.426-5.193,12.343
		c-0.824,2.405,0.506,2.668,2.166,3c1.25,0.25,2.91,0.459,5.25,0.75c2.355,0.293,2.613-1.804,2.432-4.616
		C381.384,59.656,381.236,55.044,380.867,51.116z"/>
	<path fill="#000000" d="M159.868,29.361c-1.068-0.203-2.877-0.322-4.992-0.367s-3.004,0.676-3.025,2.872
		c-0.085,8.493-0.229,30.263-0.085,36.964c0.039,1.797,0.237,2.938,1.522,3.043c0.73,0.061,1.449,0.067,3.205-0.045
		c1.832-0.116,3.27-1.355,3.907-3.748c1.767-6.619,2.903-24.129,3.149-29.31C163.79,33.746,163.741,30.096,159.868,29.361z"/>
	<path fill="#000000" d="M99.571,49.753c-0.965-5.023-2.418-5.621-4.707-5.215c-0.973,0.172-2.936,0.849-4.314,1.896
		c-2.082,1.583-1.832,3.667-1.04,7.259c1.616,7.326,7.198,29.119,8.254,32.477c0.611,1.944,1.628,2.765,3.482,2.488
		c0.419-0.062,1.231-0.269,1.819-0.661c0.977-0.658,1.782-1.222,1.602-4.269C104.235,76.435,99.787,50.872,99.571,49.753z"/>
	<path fill="#000000" d="M448.927,34.988c-1.779-4.057-5.227-7.117-10.25-9.1c-6.246-2.461-20.984-5.152-23.727-5.498
		c-1.355-0.17-2.678-0.256-3.934-0.256c-1.52,0-2.957,0.142-4.326,0.39c-0.787-4.288-3.293-8.878-11.08-10.595
		c-3.422-0.758-17.336-2.568-17.928-2.646c-0.871-0.112-1.914-0.248-3.094-0.248c-3.033,0-6.721,0.918-9.693,4.396
		c-1.475-0.492-2.766-0.684-3.471-0.786c-2.926-0.418-5.502-0.747-9.908-0.88c-0.326-0.011-0.641-0.016-0.939-0.016
		c-10.236,0-12.762,7.213-13.695,10.802c-0.217-0.033-0.41-0.06-0.562-0.081c-2.295-0.307-5.475-0.619-10.012-0.984
		c-0.555-0.045-1.068-0.066-1.57-0.066c-5.334,0-8.316,2.694-9.814,4.742c-1.193-0.184-2.188-0.188-2.758-0.189
		c-0.643-0.002-1.166-0.008-1.645-0.014c-0.502-0.006-0.963-0.012-1.447-0.012c-0.008,0-0.014,0-0.021,0
		c-0.17-2.24-0.867-4.283-2.104-6.109c-1.787-2.641-5.424-5.789-12.592-5.789c-0.43,0-0.875,0.011-1.336,0.033
		c-2.18,0.105-21.58,1.081-33.529,2.67c-6.975,0.926-11.457,5.066-12.617,11.658c-0.348,1.967-0.605,3.881-0.803,5.57
		c-1.215-1.484-2.77-2.754-4.686-3.809c-3.77-2.072-7.541-3.621-9.793-4.546c-0.355-0.146-0.664-0.272-0.916-0.378
		c-1.746-0.734-3.508-1.104-5.248-1.104c-0.039,0-0.094,0.003-0.137,0.003c-2.103-1.941-4.591-2.766-5.884-3.193
		c-2.177-0.719-7.619-1.861-18.252-3.998c-2.425-0.486-4.52-0.907-5.564-1.133c-1.829-0.396-4.119-0.893-6.557-0.893
		c-1.121,0-2.188,0.119-3.205,0.328c-3.371-5.934-9.487-9.941-17.815-11.273c-8.378-1.34-17.607-1.735-21.548-1.904l-1.09-0.047
		C144.946,0.012,144.515,0,144.099,0c-4.501,0-8.108,1.354-10.721,4.021c-2.646,2.701-3.94,6.41-3.846,11.022
		c0,0.01,0.001,0.044,0.003,0.09c-0.076,0.008-0.146,0.012-0.225,0.021c-5.303,0.612-7.314,0.925-12.352,1.74
		c-1.427,0.229-2.705,0.606-3.867,1.097c-3.021-2.523-7.104-4.166-12.682-4.166c-1.577,0-3.211,0.131-4.996,0.401
		c-7.334,1.112-15.744,4.286-19.166,5.81c-2.684,1.193-4.967,2.692-6.887,4.449c-1.375-2.432-2.963-4.406-4.804-5.939
		c-3.233-2.693-7.204-4.061-11.801-4.061c-2.356,0-4.657,0.352-6.399,0.659c-7.61,1.341-23.744,6.195-35.951,15.878
		C-4.006,42.459,0.238,56.01,1.836,61.111c2.999,9.596,47.44,84.159,51.698,89.613c4.538,5.811,9.964,8.756,16.121,8.756
		c3.435,0,6.249-0.922,8.302-1.598c0.398-0.131,0.78-0.256,1.142-0.361c5.081-1.462,12.242-4.635,17.03-7.545
		c4.531-2.753,7.255-5.82,8.83-8.824c1.926,0.657,3.824,0.893,5.53,0.893c1.67,0,3.418-0.207,5.496-0.651
		c6.475-1.382,12.077-3.767,15.85-6.724c0.008,0.012,0.012,0.021,0.021,0.031c2.121,2.979,5.4,4.617,9.227,4.617
		c0.883,0,1.815-0.082,2.853-0.254c2.692-0.445,6.618-0.967,10.415-1.47c4.137-0.548,8.047-1.067,10.414-1.495
		c4.929-0.896,8.392-4.104,9.357-8.607c0.289,1.25,0.73,2.41,1.344,3.487c1.229,2.149,3.687,4.927,8.436,5.95
		c3.021,0.656,8.94,1.936,12.16,2.633l1.141,0.246c1.138,0.244,2.486,0.496,3.898,0.496c0.557,0,1.325-0.051,2.201-0.229
		c1.184,0.896,2.705,1.688,4.695,2.164l2.372,0.564l1.786,0.428c0.901,0.215,1.809,0.324,2.688,0.324
		c4.93,0,7.641-3.049,9.087-5.346c1.35,6.693,6.668,9.716,11.719,9.716c0.324,0,0.656-0.013,0.99-0.033
		c3.844-0.257,9.789-0.909,13.078-1.558c2.232-0.438,3.99-1.116,5.396-1.958c1.727,0.925,4.006,1.622,6.98,1.622
		c0.318,0,0.643-0.008,0.979-0.023c0.762-0.037,2.158-0.084,3.945-0.148c5.334-0.186,14.264-0.498,20.285-0.979
		c0.268-0.021,0.514-0.038,0.748-0.055c1.008-0.067,2.877-0.205,4.818-0.98c1.738,0.65,3.309,0.694,4.023,0.713
		c0.828,0.02,1.803,0.031,2.746,0.031c1.205,0,2.959-0.02,4.461-0.107c1.562-0.092,2.963-0.439,4.197-1.027
		c1.463,0.709,3.145,1.162,5.037,1.35c2.906,0.288,7.736,0.448,12.85,0.619c3.832,0.128,7.791,0.259,10.008,0.43
		c0.334,0.025,0.67,0.037,0.998,0.037c2.648,0,6.41-0.87,9.266-5.021c0.936-1.367,1.561-2.912,2.342-4.944
		c0.143-0.375,0.273-0.726,0.391-1c0.027-0.071,0.053-0.138,0.078-0.206c0.184,0.008,0.371,0.014,0.547,0.021
		c0.23,0.01,0.459,0.016,0.684,0.016c4.277,0,7.902-1.961,9.945-5.379c0.904-1.512,1.604-2.711,2.285-4.289
		c0.463-1.058,0.742-2.047,0.895-2.971c0.969-0.658,1.76-1.414,2.383-2.204c0.201,1.819,0.383,3.66,0.502,5.069
		c0.131,1.586,0.461,2.922,0.92,4.065c-0.383,1.785-0.217,3.345-0.129,4.147c0.191,1.801,0.402,2.971,0.559,3.824
		c0.064,0.342,0.117,0.635,0.137,0.797c0.281,2.451,1.803,8.285,9.793,9.617c0.846,0.143,25.637,3.852,26.732,3.852
		c5.584,0,8.9-2.757,10.699-5.07c1.719-2.213,2.727-4.812,3.895-7.822c0.404-1.043,1.094-2.692,1.824-4.439
		c3.559-8.504,27.908-84.162,28.324-85.676C450.683,43.08,450.574,38.742,448.927,34.988z M75.958,111.214
		c-4.609,2.802-11.568,5.859-16.221,7.198c-4.408,1.266-10.961,4.85-18.057-4.236c-8.032-10.289-28.768-47.793-31.256-55.754
		c-1.681-5.366-3.66-13.021,5.574-20.35c10.307-8.175,24.487-12.755,31.92-14.065c7.106-1.252,11.953-0.977,15.498,9.17
		c3.545,10.148,2.977,9.349,3.882,13.554c0.907,4.212-1.765,5.187-5.405,7.039c-3.441,1.747-5.088,2.533-8.316,3.568
		c-2.848,0.91-4.039,1.31-5.418-2.06c-0.696-1.699-1.357-4.077-2.608-6.299c-0.817-1.452-1.835-2.078-4.132-1.519
		c-1.949,0.473-5.396,2.201-7.453,3.963c-1.287,1.107-3.708,3.271-0.84,9.793c3.535,8.039,19.032,36.398,21.527,40.881
		c1.133,2.04,1.852,3.408,4.586,2.826c1.32-0.279,2.996-1.081,3.893-1.832c1.076-0.905,1.092-2.258,0.279-5.275
		c-1.053-3.91-3.916-11.455-4.772-14.07c-0.706-2.171-2.691-1.305-4.138-0.664c-1.445,0.644-3.169,2.542-5.127-1.008
		c-1.96-3.548-2.889-5.638-3.977-7.653c-1.083-2.017-2.164-4.92,1.984-7.222c4.553-2.523,13.751-6.916,18.146-8.051
		c3.915-1.012,5.64-0.002,7.794,6.726s8.201,26.423,9.641,32.486C84.063,103.001,82.421,107.287,75.958,111.214z M113.858,95.148
		c-2.889,2.335-7.812,4.433-13.641,5.677c-5.332,1.139-10.031,0.913-13.07-6.729c-5.025-12.641-11.18-33.6-14.356-44.626
		c-3.316-11.509-0.414-17.861,7.116-21.213c3.609-1.606,11.082-4.258,16.855-5.133c12.145-1.84,14.766,4.835,16.371,18.435
		c2.403,20.351,4,33.375,4.047,42.375C117.211,89.6,116.134,93.311,113.858,95.148z M156.817,88.011
		c-0.143,1.364-0.377,3.12-0.646,4.595c-0.287,1.579-1.535,2.186-2.943,2.441c-4.609,0.832-16.152,2.153-22.386,3.184
		c-3.699,0.611-4.747-0.473-5.673-5.318c-1.672-8.719-8.048-47.434-9.989-61.256c-0.574-4.092-0.287-5.312,3.215-5.879
		c4.898-0.792,6.764-1.085,11.948-1.684c2.485-0.287,3.741,0.31,3.933,4.332c0.361,7.604,2.584,53.124,2.983,57.375
		c0.134,1.432,0.575,2.318,2.995,1.977c3.921-0.549,10.733-1.574,14.234-2.078C156.658,85.388,156.962,86.647,156.817,88.011z
		 M157.97,82.176c-11.32-0.129-16.127,0.287-16.814-3.492c-0.828-4.524-2.526-59.086-2.625-63.825
		c-0.098-4.743,2.045-6.05,6.424-5.836c3.074,0.145,12.895,0.45,21.639,1.85c10.598,1.695,14.381,8.626,12.939,18.235
		c-1.987,13.258-5.717,36.305-6.859,42.307C171.468,77.738,169.293,82.307,157.97,82.176z M190.056,88.463
		c1.955,0.422,3.479,0.802,5.239,1.182c1.758,0.379,3.609,1.008,2.726,3.555c-0.627,1.795-0.824,2.392-1.648,4.474
		c-0.76,1.915-1.646,2.075-4.578,1.443c-2.932-0.634-10.668-2.306-14.38-3.111c-2.929-0.632-4.353-2.577-3.771-7.155
		c0.582-4.577,9.926-58.192,10.787-63.122c0.86-4.926,5.355-3.955,9.264-3.107c3.908,0.843,20.041,3.938,22.887,4.878
		c3.532,1.169,3.588,1.899,2.68,5.188c-0.857,3.109-3.059,8.792-3.787,10.271c-0.729,1.479-2.158,3.42-4.429,2.928
		c-2.932-0.631-8.057-1.74-9.229-1.996c-1.173-0.253-3.28-0.914-3.913,2.017c-0.635,2.934-2.855,12.015-3.193,13.576
		c-0.338,1.562,0.106,3.298,2.843,3.888c2.735,0.591,4.689,1.015,6.447,1.393c1.76,0.381,3.397,1.015,2.676,3.533
		c-0.633,2.204-1.915,5.796-2.644,7.273c-0.73,1.481-0.988,2.373-4.113,1.697c-3.128-0.676-5.038-0.912-6.212-1.165
		c-1.171-0.252-3.073-1.102-3.733,1.62c-0.667,2.748-1.202,5.052-1.665,7.203C187.843,87.072,188.102,88.041,190.056,88.463z
		 M244.925,106.141c-2.893,0.569-8.734,1.248-12.998,1.532c-3.035,0.202-4.246-1.508-4.459-4.32
		c-0.531-6.994-0.805-14.331-1.26-23.368c-0.209-4.136-2.659-3.05-3.645-1.111c-3.747,7.36-7.68,15.395-10.68,21.228
		c-1.006,1.954-1.654,3.256-3.746,2.758c-1.019-0.242-2.858-0.684-4.482-1.07c-2.689-0.643-3.231-2.301-2.441-4.713
		c5.566-16.989,19.278-58.13,20.733-62.546c0.966-2.93,2.683-4.061,5.234-2.988c1.742,0.734,5.926,2.349,9.869,4.518
		c2.5,1.375,3.33,3.05,3.25,6.375c-0.105,4.459,0.092,20.625,0.084,32.167c0,1.75,1,1.584,1.414-0.23
		c0.629-2.744,3.379-22.016,4.09-24.846c0.713-2.83,2.07-3.68,4.795-4.168c1.863-0.332,8.049-1.104,11.945-1.258
		c3.744-0.148,4.361,2.411,2.998,6.502c-1.344,4.032-11.143,36.754-15.576,50.721C249.195,104.015,249.066,105.326,244.925,106.141z
		 M275.146,93.115c4.162-0.201,11.441-0.793,14.115-0.909c3.467-0.15,3.178,1.78,2.977,3.18c-0.334,2.333-0.5,3.972-0.812,5.938
		c-0.488,3.077-1.641,2.812-4.848,3.068c-8.479,0.678-22.615,1.039-25.91,1.199c-4.545,0.219-6.537-1.916-5.406-5.578
		c4.559-14.74,16.305-52.469,17.336-55.775c1.287-4.127-0.254-4.308-2.768-4.164c-3.9,0.224-6.641,0.63-11.473,0.902
		c-2.422,0.137-4.078-0.666-3.789-3.65c0.199-2.047,0.51-5.611,1.17-9.354c0.449-2.549,1.588-3.854,4.939-4.299
		c11.125-1.479,29.371-2.436,32.775-2.602c6.104-0.293,8.021,2.264,5.672,8.139c-1.938,4.859-19.736,45.795-25.76,59.523
		C272.105,91.606,272.605,93.238,275.146,93.115z M308.109,94.567c-0.309,2.568-0.467,4.199-0.893,6.607
		c-0.387,2.195-0.658,2.678-2.291,2.773c-2.125,0.125-5.195,0.114-7.041,0.068c-2.025-0.05-2.348-0.56-2.205-2.413
		c0.199-2.604,0.328-3.75,0.623-7.064c0.203-2.285,1.896-2.104,3.705-2.217c1.812-0.117,4.025-0.125,4.887-0.171
		C306.8,92.054,308.378,92.32,308.109,94.567z M305.748,88.705c-1.965,0.05-3.586,0.154-5.914,0.188
		c-1.791,0.026-2.293-0.794-2.146-2.944c0.52-7.549,2.783-39.828,3.219-48.787c0.182-3.729,0.732-3.891,4.365-4.092
		c3.508-0.194,4.23-0.103,6.879-0.098c3.668,0.007,3.846,1.381,3.484,4.189c-0.908,7.092-6.129,44.26-6.688,47.897
		C308.527,87.785,308.345,88.639,305.748,88.705z M345.894,99.119c-0.545,1.3-1.396,3.825-2.068,4.806
		c-0.797,1.158-1.561,1.626-2.99,1.516c-5.652-0.435-19.26-0.597-24.512-1.116c-3.729-0.369-4.5-1.994-4.084-5.996
		c0.922-8.83,6.623-51.715,8.611-64.117c0.781-4.867,1.334-6.029,4.734-5.754c4.268,0.344,7.4,0.648,9.541,0.935
		c3.555,0.476,3.43,1.946,2.316,7.786c-1.561,8.198-10.371,51.021-10.832,54.681c-0.18,1.427-0.537,3.581,1.896,3.795
		c4.744,0.417,12.52,0.255,16.092,0.415C346.31,96.146,346.673,97.268,345.894,99.119z M360.568,88.399
		c-0.516,1.194-1.078,2.159-1.934,3.586c-0.723,1.209-1.949,1.484-3.383,1.424c-5.275-0.225-15.152-0.459-19.943-0.725
		c-3.742-0.207-3.934-2.271-3.152-5.846c1.977-9.087,10.273-51.156,13.268-63.352c0.936-3.821,1.539-4.858,5.82-4.727
		c4.133,0.126,6.473,0.446,8.895,0.792c5.051,0.73,4.465,2.555,2.652,8.066c-2.633,7.988-17.102,51.222-17.562,54.882
		c-0.182,1.423-0.635,2.623,2.271,2.776c4.189,0.221,6.514,0.099,11.506,0.263C361.222,85.613,361.259,86.817,360.568,88.399z
		 M393.257,108.066c-1.557-0.017-5.539-0.632-6.668-0.82c-2.26-0.377-2.955-1.062-3.127-2.548c-0.139-1.205-0.461-2.276-0.744-4.928
		c-0.225-2.093,0.012-2.754,2.527-2.824c1.559,0.02,6.77-0.014,7.65-0.004c2.059,0.023,2.914,0.229,2.99,2.528
		c0.037,1.214,0.086,3.009,0.082,5.942C395.962,107.518,395.171,108.036,393.257,108.066z M398.031,26.126
		c-0.061,4.347-0.879,47.249-1.672,63.202c-0.186,3.732-0.129,4.712-3.6,4.814c-1.689,0.05-6.264,0.105-8.006,0.018
		c-2.439-0.131-2.703-1.06-2.869-3.06c-0.291-3.476-0.98-9.841-1.48-12.796c-0.154-0.914-0.527-1.854-2.227-2.188
		c-2.26-0.445-5.943-0.861-7.654-1.119c-1.307-0.197-2.178,0.743-2.521,1.293c-1.053,1.68-1.721,2.725-2.281,3.851
		c-0.916,1.837-2.68,1.904-5.031,1.83c-2.553-0.08-4.803-0.163-7.635-0.33c-2.889-0.17-2.578-2.394-1.246-6.297
		c5.26-15.414,16.635-49.542,17.982-54.071c1.711-5.74,3.863-5.438,6.734-5.064c6.967,0.905,15.139,2.064,17.148,2.509
		C397.601,19.584,398.109,20.639,398.031,26.126z M440.583,45.855c-1.186,4.303-5.615,22.241-6.584,25.053
		c-0.93,2.692-2.799,3.486-5.16,2.406c-1.33-0.607-3.57-1.659-5.359-2.697c-2.393-1.396-2.508-2.369-1.912-4.389
		c0.639-2.156,0.473-1.775,1.135-4.018c0.545-1.847,0.309-3.038-1.162-3.723c-0.955-0.441-1.375-0.65-2.289-1.006
		c-1.213-0.471-2.725-0.645-3.361,1.611c-0.5,1.775-0.262,1.301-1.137,4.404c-0.488,2.033-1.377,5.158,0.688,6.826
		c3.754,3.041,7.582,4.215,10.324,6.254c2.594,1.928,3.621,3.638,3.158,6.789c-0.486,3.421-5.818,15.309-7.52,19.699
		c-2.531,6.527-3.486,9.015-9.797,8.003c-4.07-0.652-4.068-0.834-7.59-1.518c-4.834-0.938-5.205-1.104-5.531-3.353
		c-0.178-1.244-0.191-3.414-0.201-6.145c-0.014-2.555,0.674-2.921,4.271-2.092c2.047,0.472,2.807,0.655,4.635,1.102
		c1.695,0.414,2.168-0.977,2.953-2.939c0.83-2.086,1.555-4.472,2.514-7.565c0.717-2.309-0.973-3.216-2.891-4.351
		c-2.162-1.282-2.832-1.871-6.148-3.939c-2.418-1.506-3.527-2.23-3.504-6.914c0.035-7.787,0.473-26.611,1.334-36.359
		c0.688-7.757,7.461-8.293,12.379-7.676c2.5,0.314,16.326,2.883,21.549,4.941C440.917,36.447,442.255,39.783,440.583,45.855z"/>
</g>
</svg>
