<?xml version="1.0" encoding="UTF-8" standalone="no"?>
<svg width="200px" height="80px" viewBox="0 0 200 80" version="1.1" xmlns="http://www.w3.org/2000/svg" xmlns:xlink="http://www.w3.org/1999/xlink">
    <!-- Generator: Sketch 49.2 (51160) - http://www.bohemiancoding.com/sketch -->
    <title>trumpet</title>
    <desc>Created with Sketch.</desc>
    <defs></defs>
    <g id="Page-1" stroke="none" stroke-width="1" fill="none" fill-rule="evenodd">
        <path d="M112.604891,62.9233202 C110.58656,65.6742254 107.57252,66.9501387 104.423925,67.6831101 C93.6864078,70.2077896 82.8950684,70.1444464 72.1485808,67.7012082 C70.4711241,67.3211489 68.8026377,66.5972265 67.277677,65.7466177 C61.3123896,62.4256236 60.06551,53.6390152 64.8197992,48.9154215 C64.7570067,48.761588 69.4485034,45.8387512 72.0319662,45.2596133 C75.89819,44.3637593 79.9079395,43.8117684 83.8818077,43.666984 C90.4660497,43.4407582 97.1130841,43.1511892 103.598652,44.9609953 C105.509338,45.4948881 107.437965,46.1373692 109.169244,47.0784683 C114.721895,50.1008444 116.37244,57.7925201 112.604891,62.9233202 M199.868523,0.0597073685 C199.518679,-0.28415578 196.127884,0.919365239 194.961738,2.07764111 C194.226168,2.82871061 193.840443,3.95079036 193.320162,4.91903659 C190.054952,11.04523 186.278432,16.7823152 181.183269,21.5330561 C175.953551,26.4195324 169.916501,29.1613885 162.61463,29.1070943 C146.52181,28.989457 130.42899,29.0708982 114.336169,29.0708982 C113.690304,29.0708982 113.053408,29.0347021 112.784298,29.016604 C112.793268,25.6413158 112.793268,22.4922533 112.802238,19.2979456 C112.766357,19.3069946 112.936794,19.2798475 113.125171,19.2617495 C115.726575,19.0264747 117.314328,17.614826 117.278447,15.5787942 C117.233595,13.4794192 115.457464,12.0677705 112.793268,12.0406234 C110.308479,12.0225253 107.82369,12.0225253 105.329931,12.0496724 C104.495688,12.0587214 103.625563,12.0949175 102.809261,12.2939962 C101.113863,12.7012026 100.234768,13.9590178 100.216828,15.6240393 C100.198887,17.2890609 101.069012,18.528778 102.737498,19.0083766 C103.482038,19.2165043 104.271429,19.2888966 104.962146,19.415583 L104.962146,28.8627705 C100.746079,28.8627705 96.4403074,28.8718196 91.9102771,28.8718196 C91.9461585,27.3877786 92.0268918,25.8041983 92.0179214,24.220618 C91.9999807,22.5917926 91.9102771,20.9720162 91.8474846,19.3974849 C92.4484985,19.3160437 92.6189353,19.2888966 92.8073128,19.2707985 C95.5073902,19.0083766 96.9964695,17.7053163 96.9785288,15.6240393 C96.9605881,13.4703701 95.2562203,12.0768195 92.5830539,12.0315743 C91.1747078,12.0134763 89.7753322,12.0044272 88.3849268,12.0406234 C86.3845372,12.1039666 84.3841477,12.0587214 82.4196395,12.3663885 C80.6793902,12.6378594 79.8989692,14.0766552 79.9258803,15.7416767 C79.9527913,17.325257 80.7690938,18.5468761 82.3927284,18.9812295 C83.137268,19.1893572 83.9176891,19.2707985 84.5545844,19.3793869 C84.5635548,22.5736945 84.5725251,25.7318061 84.5904659,28.717986 C80.4102795,28.717986 76.14936,28.708937 72.0140254,28.699888 C72.0319662,25.722757 72.0499069,22.5555965 72.0588772,19.3341417 C72.1306401,19.3250927 72.3638694,19.2888966 72.606069,19.2707985 C75.2882057,18.9902786 76.7593443,17.632924 76.6696407,15.5245 C76.5709668,13.3708308 75.0011543,12.0858685 72.3638694,12.0315743 C70.7850865,12.0044272 69.188363,11.9953782 67.6095802,12.0315743 C65.7347756,12.0949175 63.8510006,12.0677705 62.0120775,12.3754375 C60.3615318,12.6469084 59.6259625,14.0676061 59.6259625,15.6330884 C59.6259625,17.1985706 60.3615318,18.4835329 61.9851664,18.9540824 C62.7835282,19.1893572 63.6267417,19.2707985 64.2995185,19.3974849 C64.2995185,22.6370377 64.2815778,25.8132473 64.2815778,29.0980453 C51.0323606,29.0889963 23.950853,29.0889963 8.4141948,29.0799473 L8.4141948,23.8677059 C8.4141948,21.9945566 6.53041985,20.4743195 4.2070974,20.4743195 C1.88377496,20.4743195 0,21.9945566 0,23.8677059 L0,48.7525389 C0,50.6256882 1.88377496,52.1459253 4.2070974,52.1459253 C6.53041985,52.1459253 8.4141948,50.6256882 8.4141948,48.7525389 L8.4141948,43.7303272 C21.2776866,43.7303272 44.9056068,43.7212781 55.3112208,43.7122291 C50.6376649,51.0509926 51.0233902,57.8558633 52.4048252,62.7694867 C54.5038887,70.334476 59.939925,74.6870595 67.026507,77.1212486 C73.7094229,79.4378004 80.6614495,79.9807422 87.6762686,79.9988403 C95.1126945,80.0259873 102.504269,79.5916339 109.599821,77.0941016 C117.583439,74.2798532 123.216823,69.1581021 124.65208,60.3533957 C125.611908,54.4262809 124.607228,48.8158821 121.090848,43.6217388 C121.978914,43.6036407 122.63375,43.5674446 123.288586,43.5674446 C136.232811,43.5674446 149.159095,43.7303272 162.10332,43.5131504 C170.759715,43.377415 177.604097,46.9336839 182.833815,53.4670837 C186.960179,58.6340799 190.386856,64.3802141 194.118524,69.8820245 C195.257759,71.547046 199.437946,72.7596161 199.868523,72.3252626 C199.904404,69.9544167 199.985137,67.5926198 199.985137,65.2217739 C200.003078,44.8976521 200.003078,24.5735302 199.994108,4.24940836 C199.994108,2.8558577 199.904404,1.46230705 199.868523,0.0597073685" id="trumpet" fill="#231F20"></path>
    </g>
</svg>